# xmcd CD database file
#
# Track frame offsets:
#	150
#	12146
#	24562
#	36163
#	45777
#	56414
#	68102
#	79430
#	90478
#	101480
#	111291
#	124893
#	136188
#	146762
#	155272
#	166772
#	176432
#
# Disc length: 2482 seconds
#
# Revision: 0
# Processed by: cddbd v1.5.2PL0 Copyright (c) Steve Scherf et al.
# Submitted via: CDex 1.81
#
DISCID=d209b011
DTITLE=Marty Robbins - The Complete US Hits 1952-62 [CD1]
DYEAR=2014
DGENRE=Country
TTITLE0=I'll Go On Alone
TTITLE1=I Couldnt Keep From Crying
TTITLE2=Pretty Words
TTITLE3=Call Me Up (And Ill Come Calling On You)
TTITLE4=Time Goes By
TTITLE5=Thats All Right
TTITLE6=Maybelline
TTITLE7=Singing The Blues
TTITLE8=I Cant Quit (Ive Gone Too Far)
TTITLE9=Knee Deep In The Blues
TTITLE10=The Same Two Lips
TTITLE11=A White Sport Coat (And A Pink Carnation)
TTITLE12=Please Dont Blame Me
TTITLE13=Teenage Dream
TTITLE14=The Story Of My Life
TTITLE15=Just Married
TTITLE16=Stairway Of Love
EXTD=YEAR: 2014
EXTT0=
EXTT1=
EXTT2=
EXTT3=
EXTT4=
EXTT5=
EXTT6=
EXTT7=
EXTT8=
EXTT9=
EXTT10=
EXTT11=
EXTT12=
EXTT13=
EXTT14=
EXTT15=
EXTT16=
PLAYORDER=
